<?xml version="1.0" encoding="UTF-8" standalone="no"?>
<!-- Created with Inkscape (http://www.inkscape.org/) -->

<svg
   width="173.981mm"
   height="103.806mm"
   viewBox="0 0 173.981 103.806"
   version="1.1"
   id="svg1"
   inkscape:version="1.3.2 (091e20e, 2023-11-25, custom)"
   sodipodi:docname="familie-portret-klein.svg"
   xmlns:inkscape="http://www.inkscape.org/namespaces/inkscape"
   xmlns:sodipodi="http://sodipodi.sourceforge.net/DTD/sodipodi-0.dtd"
   xmlns="http://www.w3.org/2000/svg"
   xmlns:svg="http://www.w3.org/2000/svg">
  <sodipodi:namedview
     id="namedview1"
     pagecolor="#ffffff"
     bordercolor="#000000"
     borderopacity="0.25"
     inkscape:showpageshadow="2"
     inkscape:pageopacity="0.0"
     inkscape:pagecheckerboard="0"
     inkscape:deskcolor="#d1d1d1"
     inkscape:document-units="mm"
     inkscape:zoom="0.72426347"
     inkscape:cx="396.95499"
     inkscape:cy="561.25984"
     inkscape:window-width="1920"
     inkscape:window-height="1009"
     inkscape:window-x="-8"
     inkscape:window-y="-8"
     inkscape:window-maximized="1"
     inkscape:current-layer="layer1" />
  <defs
     id="defs1" />
  <g
     inkscape:label="Laag 1"
     inkscape:groupmode="layer"
     id="layer1">
    <rect
       width="173.98062"
       height="96.46064"
       fill="#e8f4f8"
       id="rect1"
       x="0"
       y="0"
       style="stroke-width:0.186984" />
    <rect
       y="72.443115"
       width="173.67403"
       height="31.363159"
       fill="#c8d8c0"
       id="rect2"
       x="0.13130569"
       style="stroke-width:0.184509" />
    <g
       transform="matrix(0.26458333,0,0,0.26458333,13.980936,14.234777)"
       id="g5">
      <!-- Body -->
      <rect
         x="-30"
         y="80"
         width="60"
         height="100"
         fill="#2c3e50"
         rx="5"
         id="rect3" />
      <!-- Neck -->
      <rect
         x="-10"
         y="60"
         width="20"
         height="25"
         fill="#ffd5b8"
         id="rect4" />
      <!-- Head -->
      <ellipse
         cx="0"
         cy="40"
         rx="28"
         ry="35"
         fill="#ffd5b8"
         id="ellipse4" />
      <!-- Hair -->
      <path
         d="M -28,30 Q -30,10 -20,5 -10,0 0,-5 10,0 20,5 30,10 28,30 25,50 20,55 L 15,50 Q 10,45 5,50 H -5 q -5,-5 -10,0 l -5,5 q -5,-5 -8,-25"
         fill="#f4e4c1"
         id="path4" />
      <!-- Eyes -->
      <circle
         cx="-10"
         cy="40"
         r="3"
         fill="#6b8e9f"
         id="circle4" />
      <circle
         cx="10"
         cy="40"
         r="3"
         fill="#6b8e9f"
         id="circle5" />
      <!-- Smile -->
      <path
         d="m -12,50 q 12,6 24,0"
         stroke="#d4a574"
         stroke-width="2"
         fill="none"
         id="path5" />
    </g>
    <g
       transform="matrix(0.26458333,0,0,0.26458333,40.439269,12.911857)"
       id="g9">
      <!-- Body -->
      <rect
         x="-30"
         y="80"
         width="60"
         height="100"
         fill="#b0c4de"
         rx="5"
         id="rect5" />
      <!-- Neck -->
      <rect
         x="-10"
         y="60"
         width="20"
         height="25"
         fill="#ffd5b8"
         id="rect6" />
      <!-- Head -->
      <ellipse
         cx="0"
         cy="40"
         rx="28"
         ry="35"
         fill="#ffd5b8"
         id="ellipse6" />
      <!-- Kort grijs haar -->
      <path
         d="M -28,35 Q -30,15 -20,8 -10,3 0,2 10,3 20,8 30,15 28,35"
         fill="#d0d0d0"
         id="path6" />
      <!-- Bril -->
      <circle
         cx="-10"
         cy="40"
         r="8"
         fill="none"
         stroke="#333333"
         stroke-width="2"
         id="circle6" />
      <circle
         cx="10"
         cy="40"
         r="8"
         fill="none"
         stroke="#333333"
         stroke-width="2"
         id="circle7" />
      <line
         x1="-2"
         y1="40"
         x2="2"
         y2="40"
         stroke="#333333"
         stroke-width="2"
         id="line7" />
      <!-- Eyes -->
      <circle
         cx="-10"
         cy="40"
         r="3"
         fill="#8b7355"
         id="circle8" />
      <circle
         cx="10"
         cy="40"
         r="3"
         fill="#8b7355"
         id="circle9" />
      <!-- Smile -->
      <path
         d="m -12,52 q 12,5 24,0"
         stroke="#d4a574"
         stroke-width="2"
         fill="none"
         id="path9" />
    </g>
    <g
       transform="matrix(0.26458333,0,0,0.26458333,77.480935,8.9431075)"
       id="g14">
      <!-- Body -->
      <rect
         x="-30"
         y="80"
         width="60"
         height="100"
         fill="#ffb3ba"
         rx="5"
         id="rect9" />
      <!-- Neck -->
      <rect
         x="-10"
         y="60"
         width="20"
         height="25"
         fill="#ffd5b8"
         id="rect10" />
      <!-- Head -->
      <ellipse
         cx="0"
         cy="40"
         rx="28"
         ry="35"
         fill="#ffd5b8"
         id="ellipse10" />
      <!-- Hair (kort grijs) -->
      <path
         d="M -28,35 Q -30,15 -20,8 -10,2 0,0 10,2 20,8 30,15 28,35"
         fill="#d9d9d9"
         id="path10" />
      <!-- Hoed -->
      <ellipse
         cx="0"
         cy="5"
         rx="35"
         ry="8"
         fill="#cd853f"
         id="ellipse11" />
      <path
         d="m -35,5 q 0,-15 35,-20 35,5 35,20"
         fill="#cd853f"
         id="path11" />
      <!-- Bril -->
      <circle
         cx="-10"
         cy="40"
         r="8"
         fill="none"
         stroke="#333333"
         stroke-width="2"
         id="circle11" />
      <circle
         cx="10"
         cy="40"
         r="8"
         fill="none"
         stroke="#333333"
         stroke-width="2"
         id="circle12" />
      <line
         x1="-2"
         y1="40"
         x2="2"
         y2="40"
         stroke="#333333"
         stroke-width="2"
         id="line12" />
      <!-- Eyes -->
      <circle
         cx="-10"
         cy="40"
         r="3"
         fill="#8b7355"
         id="circle13" />
      <circle
         cx="10"
         cy="40"
         r="3"
         fill="#8b7355"
         id="circle14" />
      <!-- Smile -->
      <path
         d="m -12,52 q 12,6 24,0"
         stroke="#d4a574"
         stroke-width="2"
         fill="none"
         id="path14" />
    </g>
    <g
       transform="matrix(0.26458333,0,0,0.26458333,103.93927,10.266027)"
       id="g21">
      <!-- Body met strepen -->
      <rect
         x="-32"
         y="80"
         width="64"
         height="105"
         fill="#2c3e50"
         rx="5"
         id="rect14" />
      <rect
         x="-32"
         y="95"
         width="64"
         height="15"
         fill="#d4915d"
         id="rect15" />
      <rect
         x="-32"
         y="125"
         width="64"
         height="15"
         fill="#c8d8e4"
         id="rect16" />
      <rect
         x="-32"
         y="155"
         width="64"
         height="15"
         fill="#d4915d"
         id="rect17" />
      <!-- Neck -->
      <rect
         x="-12"
         y="60"
         width="24"
         height="25"
         fill="#ffd5b8"
         id="rect18" />
      <!-- Head -->
      <ellipse
         cx="0"
         cy="38"
         rx="30"
         ry="36"
         fill="#ffd5b8"
         id="ellipse18" />
      <!-- Kort grijs haar -->
      <path
         d="M -30,32 Q -32,12 -22,6 -12,1 0,0 12,1 22,6 32,12 30,32"
         fill="#c8c8c8"
         id="path18" />
      <!-- Bril (rechthoekig) -->
      <rect
         x="-18"
         y="33"
         width="15"
         height="11"
         rx="2"
         fill="none"
         stroke="#333333"
         stroke-width="2"
         id="rect19" />
      <rect
         x="3"
         y="33"
         width="15"
         height="11"
         rx="2"
         fill="none"
         stroke="#333333"
         stroke-width="2"
         id="rect20" />
      <line
         x1="-3"
         y1="38"
         x2="3"
         y2="38"
         stroke="#333333"
         stroke-width="2"
         id="line20" />
      <!-- Eyes -->
      <circle
         cx="-11"
         cy="38"
         r="3"
         fill="#6b8e9f"
         id="circle20" />
      <circle
         cx="11"
         cy="38"
         r="3"
         fill="#6b8e9f"
         id="circle21" />
      <!-- Smile -->
      <path
         d="m -12,52 q 12,5 24,0"
         stroke="#d4a574"
         stroke-width="2"
         fill="none"
         id="path21" />
    </g>
    <g
       transform="matrix(0.26458333,0,0,0.26458333,130.3976,10.266027)"
       id="g26">
      <!-- Body -->
      <rect
         x="-35"
         y="80"
         width="70"
         height="105"
         fill="#7f9da6"
         rx="5"
         id="rect21" />
      <!-- Neck -->
      <rect
         x="-12"
         y="60"
         width="24"
         height="25"
         fill="#ffd5b8"
         id="rect22" />
      <!-- Head -->
      <ellipse
         cx="0"
         cy="38"
         rx="30"
         ry="36"
         fill="#ffd5b8"
         id="ellipse22" />
      <!-- Hair (kort donkerblond/grijs) -->
      <path
         d="m -30,30 q -2,-20 8,-25 10,-5 22,-7 12,2 22,7 10,5 8,25"
         fill="#b8a68e"
         id="path22" />
      <!-- Bril -->
      <rect
         x="-18"
         y="32"
         width="15"
         height="12"
         rx="2"
         fill="none"
         stroke="#333333"
         stroke-width="2"
         id="rect23" />
      <rect
         x="3"
         y="32"
         width="15"
         height="12"
         rx="2"
         fill="none"
         stroke="#333333"
         stroke-width="2"
         id="rect24" />
      <line
         x1="-3"
         y1="38"
         x2="3"
         y2="38"
         stroke="#333333"
         stroke-width="2"
         id="line24" />
      <!-- Eyes -->
      <circle
         cx="-11"
         cy="38"
         r="3"
         fill="#6b8e9f"
         id="circle24" />
      <circle
         cx="11"
         cy="38"
         r="3"
         fill="#6b8e9f"
         id="circle25" />
      <!-- Baard -->
      <path
         d="m -25,50 q -3,10 5,18 10,4 20,5 10,-1 20,-5 8,-8 5,-18 l -5,-2 q -5,7 -10,10 -5,2 -10,2 -5,0 -10,-2 -5,-3 -10,-10 z"
         fill="#b8a68e"
         id="path25" />
      <!-- Smile -->
      <path
         d="m -10,52 q 10,5 20,0"
         stroke="#d4a574"
         stroke-width="1.5"
         fill="none"
         id="path26" />
    </g>
    <g
       transform="matrix(0.26458333,0,0,0.26458333,156.85594,12.911857)"
       id="g39">
      <!-- Body -->
      <rect
         x="-30"
         y="80"
         width="60"
         height="100"
         fill="#e8dcc8"
         rx="5"
         id="rect26" />
      <!-- Neck -->
      <rect
         x="-10"
         y="60"
         width="20"
         height="25"
         fill="#ffd5b8"
         id="rect27" />
      <!-- Head -->
      <ellipse
         cx="0"
         cy="40"
         rx="28"
         ry="35"
         fill="#ffd5b8"
         id="ellipse27" />
      <!-- Krullend haar -->
      <g
         fill="#d4a76a"
         id="g37">
        <circle
           cx="-22"
           cy="20"
           r="8"
           id="circle27" />
        <circle
           cx="-18"
           cy="10"
           r="7"
           id="circle28" />
        <circle
           cx="-10"
           cy="5"
           r="8"
           id="circle29" />
        <circle
           cx="0"
           cy="3"
           r="8"
           id="circle30" />
        <circle
           cx="10"
           cy="5"
           r="8"
           id="circle31" />
        <circle
           cx="18"
           cy="10"
           r="7"
           id="circle32" />
        <circle
           cx="22"
           cy="20"
           r="8"
           id="circle33" />
        <circle
           cx="-24"
           cy="32"
           r="7"
           id="circle34" />
        <circle
           cx="-20"
           cy="44"
           r="6"
           id="circle35" />
        <circle
           cx="20"
           cy="44"
           r="6"
           id="circle36" />
        <circle
           cx="24"
           cy="32"
           r="7"
           id="circle37" />
      </g>
      <!-- Eyes -->
      <circle
         cx="-10"
         cy="42"
         r="3"
         fill="#6b8e9f"
         id="circle38" />
      <circle
         cx="10"
         cy="42"
         r="3"
         fill="#6b8e9f"
         id="circle39" />
      <!-- Smile -->
      <path
         d="m -12,52 q 12,6 24,0"
         stroke="#d4a574"
         stroke-width="2"
         fill="none"
         id="path39" />
    </g>
    <g
       transform="matrix(0.26458333,0,0,0.26458333,111.87677,53.922278)"
       id="g41">
      <!-- Body -->
      <rect
         x="-25"
         y="60"
         width="50"
         height="80"
         fill="#4a5568"
         rx="5"
         id="rect39" />
      <!-- Neck -->
      <rect
         x="-8"
         y="45"
         width="16"
         height="18"
         fill="#ffd5b8"
         id="rect40" />
      <!-- Head -->
      <ellipse
         cx="0"
         cy="30"
         rx="22"
         ry="28"
         fill="#ffd5b8"
         id="ellipse40" />
      <!-- Haar (kort blond) -->
      <path
         d="m -22,22 q -2,-14 6,-19 8,-4 16,-5 8,1 16,5 8,5 6,19"
         fill="#f4e4c1"
         id="path40" />
      <!-- Eyes -->
      <circle
         cx="-8"
         cy="30"
         r="3"
         fill="#6b8e9f"
         id="circle40" />
      <circle
         cx="8"
         cy="30"
         r="3"
         fill="#6b8e9f"
         id="circle41" />
      <!-- Smile -->
      <path
         d="m -10,40 q 10,5 20,0"
         stroke="#d4a574"
         stroke-width="2"
         fill="none"
         id="path41" />
    </g>
    <g
       transform="matrix(0.26458333,0,0,0.26458333,130.3976,55.245198)"
       id="g43">
      <!-- Body -->
      <rect
         x="-25"
         y="60"
         width="50"
         height="80"
         fill="#b19cd9"
         rx="5"
         id="rect41" />
      <!-- Neck -->
      <rect
         x="-8"
         y="45"
         width="16"
         height="18"
         fill="#ffd5b8"
         id="rect42" />
      <!-- Head -->
      <ellipse
         cx="0"
         cy="30"
         rx="22"
         ry="27"
         fill="#ffd5b8"
         id="ellipse42" />
      <!-- Lang blond haar -->
      <path
         d="m -22,20 q -2,-15 6,-20 8,-3 16,-4 8,1 16,4 8,5 6,20 0,20 -2,35 l -2,10 h -36 l -2,-10 q -2,-15 -2,-35"
         fill="#f4e4c1"
         id="path42" />
      <!-- Eyes -->
      <circle
         cx="-8"
         cy="30"
         r="3"
         fill="#6b8e9f"
         id="circle42" />
      <circle
         cx="8"
         cy="30"
         r="3"
         fill="#6b8e9f"
         id="circle43" />
      <!-- Tongue out -->
      <ellipse
         cx="0"
         cy="42"
         rx="4"
         ry="6"
         fill="#ff9999"
         id="ellipse43" />
      <!-- Smile -->
      <path
         d="m -10,38 q 5,4 10,4 5,0 10,-4"
         stroke="#d4a574"
         stroke-width="2"
         fill="none"
         id="path43" />
    </g>
    <g
       transform="matrix(0.26458333,0,0,0.26458333,148.91844,53.922278)"
       id="g45">
      <!-- Body -->
      <rect
         x="-25"
         y="60"
         width="50"
         height="80"
         fill="#5a8fa8"
         rx="5"
         id="rect43" />
      <!-- Neck -->
      <rect
         x="-8"
         y="45"
         width="16"
         height="18"
         fill="#ffd5b8"
         id="rect44" />
      <!-- Head -->
      <ellipse
         cx="0"
         cy="30"
         rx="22"
         ry="28"
         fill="#ffd5b8"
         id="ellipse44" />
      <!-- Haar (kort blond) -->
      <path
         d="m -22,22 q -2,-14 6,-19 8,-4 16,-5 8,1 16,5 8,5 6,19"
         fill="#f4e4c1"
         id="path44" />
      <!-- Eyes -->
      <circle
         cx="-8"
         cy="30"
         r="3"
         fill="#6b8e9f"
         id="circle44" />
      <circle
         cx="8"
         cy="30"
         r="3"
         fill="#6b8e9f"
         id="circle45" />
      <!-- Smile -->
      <path
         d="m -10,40 q 10,5 20,0"
         stroke="#d4a574"
         stroke-width="2"
         fill="none"
         id="path45" />
    </g>
  </g>
</svg>
